<svg width="100" height="23" viewBox="0 0 100 23" fill="none" xmlns="http://www.w3.org/2000/svg">
<g clip-path="url(#clip0_339_9)">
<path fill-rule="evenodd" clip-rule="evenodd" d="M0 11.301V22.6005H2.94006H5.88004L5.89818 18.0101L5.91624 13.4197L9.60951 13.3981L13.3028 13.3766V11.2587V9.14083H9.59201H5.88123V6.73139V4.32195H10.8523H15.8233V2.16176V0.0015786H7.91166H0V11.301ZM18.974 11.301V22.6005H26.4305H33.8871V20.3987V18.197H29.3712H24.8552V15.7045V13.2119H28.846H32.8369V11.0933V8.97466H28.846H24.8552V6.6483V4.32195H29.3712H33.8871V2.16176V0.0015786H26.4305H18.974V11.301ZM37.8079 11.301V22.6005H40.7485H43.6892V18.3216V14.0428L44.4418 14.0447L45.1945 14.0465L47.715 18.3189L50.2355 22.5912L53.5437 22.5959C55.3632 22.5984 56.8519 22.58 56.8519 22.555C56.8519 22.5301 55.6236 20.5528 54.1222 18.1611C52.6209 15.7694 51.3757 13.7606 51.3552 13.6972C51.3279 13.6127 51.4538 13.5412 51.827 13.4294C52.1069 13.3455 52.6231 13.136 52.9741 12.9638C55.3894 11.7789 56.8409 9.34513 56.6896 6.7343C56.4818 3.15088 54.0359 0.761964 49.9315 0.133848C49.204 0.0225158 48.1776 0.0015786 43.4377 0.0015786H37.8079V11.301ZM67.5689 0.353938C67.497 0.548521 65.5414 5.56821 63.2231 11.5087C60.9049 17.4492 58.9919 22.3751 58.9721 22.4551C58.9381 22.592 59.115 22.6004 62.0073 22.5996L65.0786 22.5987L65.5651 21.2495C65.8327 20.5074 66.17 19.5917 66.3146 19.2148L66.5775 18.5293H71.0881C74.6123 18.5293 75.6141 18.552 75.6692 18.6332C75.7079 18.6903 76.045 19.5783 76.4183 20.6064C76.7915 21.6346 77.12 22.5042 77.1483 22.5391C77.1765 22.5738 78.5874 22.5925 80.2835 22.5806L83.3674 22.5589L78.9817 11.301L74.5961 0.0431206L71.1479 0.0216019L67.6998 0L67.5689 0.353938ZM86.048 11.301V22.6005H92.8745H99.7009V20.4818V18.3632H95.8151H91.9293V9.18237V0.0015786H88.9887H86.048V11.301ZM43.6892 7.3104V10.1476L46.1572 10.1206C48.5312 10.0946 48.6428 10.0862 49.0878 9.90022C50.1122 9.472 50.6341 8.67547 50.6803 7.46984C50.7348 6.04985 50.1283 5.12986 48.8352 4.67132C48.5648 4.57536 47.9395 4.53872 46.0872 4.51022L43.6892 4.47325V7.3104ZM69.6041 10.1535C68.79 12.4069 68.1241 14.2786 68.1241 14.3128C68.1242 14.347 69.4791 14.3751 71.1349 14.3751C72.7908 14.3751 74.1455 14.3596 74.1455 14.3407C74.1455 14.2665 71.1883 6.18719 71.1379 6.12388C71.1085 6.08682 70.4182 7.90013 69.6041 10.1535Z" fill="black"/>
</g>
<defs>
<clipPath id="clip0_339_9">
<rect width="100" height="22.0339" fill="white"/>
</clipPath>
</defs>
</svg>
